<?xml version="1.0" encoding="UTF-8"?>
<svg width="1438px" height="989px" viewBox="0 0 1438 989" version="1.1" xmlns="http://www.w3.org/2000/svg" xmlns:xlink="http://www.w3.org/1999/xlink">
    <!-- Generator: Sketch 63.1 (92452) - https://sketch.com -->
    <title>Group 107</title>
    <desc>Created with Sketch.</desc>
    <defs>
        <linearGradient x1="38.1492826%" y1="37.2825931%" x2="35.7319197%" y2="70.5053975%" id="linearGradient-1">
            <stop stop-color="#CFEEFB" offset="0%"></stop>
            <stop stop-color="#CDF0FF" stop-opacity="0" offset="100%"></stop>
        </linearGradient>
        <path d="M0,132 C178,44 415.666667,0 713,0 C1010.33333,0 1252.66667,44 1440,132 L1440,947 L0,947 L0,132 Z" id="path-2"></path>
        <path d="M18.396,-1.42108547e-14 C29.5152372,-1.42108547e-14 36.792,9.03408248 36.792,19.0154842 C36.904,25.3784947 30.8,35.56 18.48,49.56 C6.16,35.56 2.27373675e-12,25.3784947 2.27373675e-12,19.0154842 C2.27373675e-12,9.03408248 7.27676283,-1.42108547e-14 18.396,-1.42108547e-14 Z M18.27,11.76 C14.2107071,11.76 10.92,15.0507071 10.92,19.11 C10.92,23.1692929 14.2107071,26.46 18.27,26.46 C22.3292929,26.46 25.62,23.1692929 25.62,19.11 C25.62,15.0507071 22.3292929,11.76 18.27,11.76 Z" id="path-4"></path>
        <path d="M28.69776,-1.0658141e-13 C46.04377,-1.0658141e-13 57.39552,14.0931687 57.39552,29.6641553 C57.57024,39.5904518 48.048,55.4736 28.8288,77.3136 C9.6096,55.4736 -3.87245791e-12,39.5904518 -3.87245791e-12,29.6641553 C-3.87245791e-12,14.0931687 11.35175,-1.0658141e-13 28.69776,-1.0658141e-13 Z M28.5012,18.3456 C22.1687031,18.3456 17.0352,23.4791031 17.0352,29.8116 C17.0352,36.1440969 22.1687031,41.2776 28.5012,41.2776 C34.8336969,41.2776 39.9672,36.1440969 39.9672,29.8116 C39.9672,23.4791031 34.8336969,18.3456 28.5012,18.3456 Z" id="path-6"></path>
        <path d="M26.28,-1.0658141e-13 C42.1646245,-1.0658141e-13 52.56,12.9058321 52.56,27.1649774 C52.72,36.2549925 44,50.8 26.4,70.8 C8.8,50.8 3.25073302e-12,36.2549925 3.25073302e-12,27.1649774 C3.25073302e-12,12.9058321 10.3953755,-1.0658141e-13 26.28,-1.0658141e-13 Z M26.1,16.8 C20.3010101,16.8 15.6,21.5010101 15.6,27.3 C15.6,33.0989899 20.3010101,37.8 26.1,37.8 C31.8989899,37.8 36.6,33.0989899 36.6,27.3 C36.6,21.5010101 31.8989899,16.8 26.1,16.8 Z" id="path-8"></path>
        <path d="M21.024,-1.03739239e-13 C33.7316996,-1.03739239e-13 42.048,10.3246657 42.048,21.7319819 C42.176,29.003994 35.2,40.64 21.12,56.64 C7.04,40.64 3.11786152e-12,29.003994 3.11786152e-12,21.7319819 C3.11786152e-12,10.3246657 8.31630037,-1.03739239e-13 21.024,-1.03739239e-13 Z M20.88,13.44 C16.2408081,13.44 12.48,17.2008081 12.48,21.84 C12.48,26.4791919 16.2408081,30.24 20.88,30.24 C25.5191919,30.24 29.28,26.4791919 29.28,21.84 C29.28,17.2008081 25.5191919,13.44 20.88,13.44 Z" id="path-10"></path>
        <path d="M31.08924,-3.37792017e-13 C49.8807508,-3.37792017e-13 62.17848,15.2675994 62.17848,32.1361683 C62.36776,42.8896561 52.052,60.0964 31.2312,83.7564 C10.4104,60.0964 -5.29695399e-12,42.8896561 -5.29695399e-12,32.1361683 C-5.29695399e-12,15.2675994 12.2977292,-3.37792017e-13 31.08924,-3.37792017e-13 Z M30.8763,19.8744 C24.016095,19.8744 18.4548,25.435695 18.4548,32.2959 C18.4548,39.156105 24.016095,44.7174 30.8763,44.7174 C37.736505,44.7174 43.2978,39.156105 43.2978,32.2959 C43.2978,25.435695 37.736505,19.8744 30.8763,19.8744 Z" id="path-12"></path>
        <path d="M31.536,1.0658141e-13 C50.5975494,1.0658141e-13 63.072,15.4869985 63.072,32.5979729 C63.264,43.505991 52.8,60.96 31.68,84.96 C10.56,60.96 3.92574862e-12,43.505991 3.92574862e-12,32.5979729 C3.92574862e-12,15.4869985 12.4744506,1.0658141e-13 31.536,1.0658141e-13 Z M31.32,20.16 C24.3612122,20.16 18.72,25.8012122 18.72,32.76 C18.72,39.7187878 24.3612122,45.36 31.32,45.36 C38.2787878,45.36 43.92,39.7187878 43.92,32.76 C43.92,25.8012122 38.2787878,20.16 31.32,20.16 Z" id="path-14"></path>
        <path d="M43.8,0 C70.2743742,0 87.6,21.5097202 87.6,45.2749623 C87.8666667,60.4249874 73.3333333,84.6666667 44,118 C14.6666667,84.6666667 2.4158453e-12,60.4249874 2.4158453e-12,45.2749623 C2.4158453e-12,21.5097202 17.3256258,0 43.8,0 Z M43.5,28 C33.8350169,28 26,35.8350169 26,45.5 C26,55.1649831 33.8350169,63 43.5,63 C53.1649831,63 61,55.1649831 61,45.5 C61,35.8350169 53.1649831,28 43.5,28 Z" id="path-16"></path>
    </defs>
    <g id="Page-1" stroke="none" stroke-width="1" fill="none" fill-rule="evenodd">
        <g id="Dekstop" transform="translate(0.000000, -667.000000)">
            <g id="Group-82" transform="translate(-199.000000, -242.000000)">
                <g id="Group-86" transform="translate(186.000000, 0.000000)">
                    <g id="Group-107" transform="translate(11.000000, 909.000000)">
                        <g id="Group-32" transform="translate(0.000000, 42.000000)">
                            <g id="Group-31">
                                <mask id="mask-3" fill="white">
                                    <use xlink:href="#path-2"></use>
                                </mask>
                                <use id="d" fill="url(#linearGradient-1)" xlink:href="#path-2"></use>
                                <g id="Group-30" mask="url(#mask-3)">
                                    <g transform="translate(-63.000000, -12.000000)">
                                        <polygon id="Path-26" fill="#A0DBF3" points="16 303 53 280 92 280 114 294 216 294 260 250 311 250 354 207 408 205 445 141 394 141 354 179 315 179 269 151 293 127 318 127 337 76 311 66 298 46 47 76 0 150"></polygon>
                                        <polygon id="Path-3" fill="#FFFFFF" points="130 286.046512 202 286.046512 156.790698 276"></polygon>
                                        <polygon id="Path-27" fill="#A0DBF3" points="330 37 375 61 402 110 463 131 493 154 548 125 562 57 587 46 603 0"></polygon>
                                        <polygon id="Path-3" fill="#FFFFFF" points="402 96 488 96 434 84"></polygon>
                                        <polygon id="Path-28" fill="#A0DBF3" points="161.509804 345.45098 186.494118 439.956863 161.509804 460.596078 144.129412 525.772549 131.094118 548.584314 138.698039 579 161.509804 579 235.376471 491.011765 261.447059 491.011765 300.552941 448.647059 362.470588 448.647059 378.764706 436.698039 405.921569 436.698039 430.905882 416.058824 430.905882 395.419608 371.160784 369.34902 362.470588 355.227451 335.313725 355.227451 300.552941 302 204.960784 302"></polygon>
                                        <polygon id="Path-3" fill="#FFFFFF" points="131 554.348837 198 554.348837 155.930233 545"></polygon>
                                        <polygon id="Path-29" fill="#A0DBF3" points="621 7 655 56 638 158 730 158 767 98 962 92 1011 49 1066 49 1076 7"></polygon>
                                        <polygon id="Path-30" fill="#A0DBF3" points="1032.95249 522.59276 1112.83484 471.678733 1197.10633 471.678733 1233.09729 455 1267.33258 455 1317.36878 505.036199 1348.09276 521.714932 1348.09276 548.049774 1249.77602 596.330317 1274.3552 619.153846 1127.75792 649 1018.90724 589.307692"></polygon>
                                        <polygon id="Path-30" fill="#A0DBF3" points="936.746667 383.158371 986.493333 351.402715 1038.97333 351.402715 1061.38667 341 1082.70667 341 1113.86667 372.208145 1133 382.61086 1133 399.036199 1071.77333 429.149321 1087.08 443.384615 995.786667 462 928 424.769231"></polygon>
                                        <polygon id="Path-3" fill="#FFFFFF" points="1133 593 1193 593 1155.32558 585"></polygon>
                                        <g id="Group-29" stroke-width="1" fill="none" transform="translate(1139.000000, 528.000000)">
                                            <g id="Group-27">
                                                <g id="Group-35">
                                                    <mask id="mask-5" fill="white">
                                                        <use xlink:href="#path-4"></use>
                                                    </mask>
                                                    <use id="Combined-Shape" fill="#79CBED" xlink:href="#path-4"></use>
                                                </g>
                                                <g id="Group-25" transform="translate(9.240000, 4.920000)">
                                                    <g id="Group-26" transform="translate(1.648080, 0.670320)">
                                                        <g id="Group-34"></g>
                                                    </g>
                                                    <path d="M-4.38760139e-13,10.4062336 C0.141706255,11.8609792 0.850237531,12.588352 2.12559383,12.588352 C3.40095012,12.588352 4.12719468,11.8609792 4.3043275,10.4062336 C4.76487283,11.8609792 5.63282364,12.588352 6.90817994,12.588352 C8.18353624,12.588352 8.9097808,11.8609792 9.08691361,10.4062336 C9.40575269,11.8609792 10.0788574,12.588352 11.1062278,12.588352 C12.1335981,12.588352 12.8598427,11.8609792 13.2849614,10.4062336 C13.7100802,11.8609792 14.5248912,12.588352 15.7293943,12.588352 C16.9338975,12.588352 17.6601421,11.8609792 17.908128,10.4062336 L16.7390514,7 L1.32849614,7 L-4.38760139e-13,10.4062336 Z" id="Path-25" fill="#51B4DD"></path>
                                                </g>
                                            </g>
                                        </g>
                                        <polygon id="Path-32" fill="#A0DBF3" points="1012 275 1220 275 1253 322 1333 322 1329 294 1434 354 1388 375 1388 411 1466 411 1558 482 1558 122 1085 26 1120.78923 107.881424 1188 137 1137 191 1035.46609 204.884452"></polygon>
                                        <polygon id="Path-3" fill="#FFFFFF" points="1099 79 1213.66667 79 1141.66667 63"></polygon>
                                        <polygon id="Path-3" fill="#FFFFFF" points="1384 343 1470 343 1416 331"></polygon>
                                        <polygon id="Path-2" fill="#A0DBF3" points="488 246 583 171 628 171 678 203 716 203 737 241 716 329 704 457 558 468 522 292"></polygon>
                                        <polygon id="Path-3" fill="#FFFFFF" points="806 155.651163 868 155.651163 829.069767 147"></polygon>
                                    </g>
                                </g>
                            </g>
                        </g>
                        <g id="Group-29" transform="translate(1323.000000, 265.000000)">
                            <g id="Group-27">
                                <g id="Group-35">
                                    <mask id="mask-7" fill="white">
                                        <use xlink:href="#path-6"></use>
                                    </mask>
                                    <use id="Combined-Shape" fill="#79CBED" xlink:href="#path-6"></use>
                                </g>
                                <g id="Group-25" transform="translate(14.414400, 17.035200)">
                                    <g id="Group-26" transform="translate(2.571005, 1.045699)">
                                        <g id="Group-34"></g>
                                    </g>
                                    <path d="M-5.81934501e-14,5.31372442 C0.221061758,7.58312755 1.32637055,8.71782912 3.31592637,8.71782912 C5.30548219,8.71782912 6.4384237,7.58312755 6.7147509,5.31372442 C7.43320162,7.58312755 8.78720488,8.71782912 10.7767607,8.71782912 C12.7663165,8.71782912 13.899258,7.58312755 14.1755852,5.31372442 C14.6729742,7.58312755 15.7230175,8.71782912 17.3257153,8.71782912 C18.928413,8.71782912 20.0613545,7.58312755 20.7245398,5.31372442 C21.3877251,7.58312755 22.6588302,8.71782912 24.5378551,8.71782912 C26.4168801,8.71782912 27.5498216,7.58312755 27.9366797,5.31372442 L26.1129202,-2.85147905e-14 L2.07245398,-2.85147905e-14 L-5.81934501e-14,5.31372442 Z" id="Path-25" fill="#51B4DD"></path>
                                </g>
                            </g>
                        </g>
                        <g id="Group-29" transform="translate(347.000000, 33.000000)">
                            <g id="Group-27">
                                <g id="Group-35">
                                    <mask id="mask-9" fill="white">
                                        <use xlink:href="#path-8"></use>
                                    </mask>
                                    <use id="Combined-Shape" fill="#79CBED" xlink:href="#path-8"></use>
                                </g>
                                <g id="Group-25" transform="translate(13.200000, 15.600000)">
                                    <g id="Group-26" transform="translate(2.354400, 0.957600)">
                                        <g id="Group-34"></g>
                                    </g>
                                    <path d="M-5.32907052e-14,4.866048 C0.202437507,6.944256 1.21462504,7.98336 3.03656261,7.98336 C4.85850018,7.98336 5.8959924,6.944256 6.14903929,4.866048 C6.80696119,6.944256 8.04689092,7.98336 9.86882849,7.98336 C11.6907661,7.98336 12.7282583,6.944256 12.9813052,4.866048 C13.4367896,6.944256 14.3983677,7.98336 15.8660396,7.98336 C17.3337116,7.98336 18.3712038,6.944256 18.9785163,4.866048 C19.5858288,6.944256 20.7498445,7.98336 22.4705633,7.98336 C24.1912821,7.98336 25.2287744,6.944256 25.58304,4.866048 L23.9129306,-2.61124455e-14 L1.89785163,-2.61124455e-14 L-5.32907052e-14,4.866048 Z" id="Path-25" fill="#51B4DD"></path>
                                </g>
                            </g>
                        </g>
                        <g id="Group-29" transform="translate(73.000000, 513.000000)">
                            <g id="Group-27">
                                <g id="Group-35">
                                    <mask id="mask-11" fill="white">
                                        <use xlink:href="#path-10"></use>
                                    </mask>
                                    <use id="Combined-Shape" fill="#79CBED" xlink:href="#path-10"></use>
                                </g>
                                <g id="Group-25" transform="translate(10.560000, 12.480000)">
                                    <g id="Group-26" transform="translate(1.883520, 0.766080)">
                                        <g id="Group-34"></g>
                                    </g>
                                    <path d="M-4.26325641e-14,3.8928384 C0.161950006,5.5554048 0.971700036,6.386688 2.42925009,6.386688 C3.88680014,6.386688 4.71679392,5.5554048 4.91923143,3.8928384 C5.44556895,5.5554048 6.43751274,6.386688 7.89506279,6.386688 C9.35261284,6.386688 10.1826066,5.5554048 10.3850441,3.8928384 C10.7494316,5.5554048 11.5186942,6.386688 12.6928317,6.386688 C13.8669693,6.386688 14.696963,5.5554048 15.1828131,3.8928384 C15.6686631,5.5554048 16.5998756,6.386688 17.9764507,6.386688 C19.3530257,6.386688 20.1830195,5.5554048 20.466432,3.8928384 L19.1303445,-2.08899564e-14 L1.51828131,-2.08899564e-14 L-4.26325641e-14,3.8928384 Z" id="Path-25" fill="#51B4DD"></path>
                                </g>
                            </g>
                        </g>
                        <g id="Group-29" transform="translate(1047.000000, 0.000000)">
                            <g id="Group-27">
                                <g id="Group-35">
                                    <mask id="mask-13" fill="white">
                                        <use xlink:href="#path-12"></use>
                                    </mask>
                                    <use id="Combined-Shape" fill="#79CBED" xlink:href="#path-12"></use>
                                </g>
                                <g id="Group-25" transform="translate(15.615600, 18.454800)">
                                    <g id="Group-26" transform="translate(2.785255, 1.132841)">
                                        <g id="Group-34"></g>
                                    </g>
                                    <path d="M-6.30429042e-14,5.75653478 C0.239483571,8.21505485 1.43690143,9.44431488 3.59225357,9.44431488 C5.74760571,9.44431488 6.97495901,8.21505485 7.27431348,5.75653478 C8.05263508,8.21505485 9.51947196,9.44431488 11.6748241,9.44431488 C13.8301762,9.44431488 15.0575295,8.21505485 15.356884,5.75653478 C15.895722,8.21505485 17.033269,9.44431488 18.7695249,9.44431488 C20.5057808,9.44431488 21.7331341,8.21505485 22.4515848,5.75653478 C23.1700355,8.21505485 24.5470661,9.44431488 26.5826764,9.44431488 C28.6182868,9.44431488 29.8456401,8.21505485 30.2647363,5.75653478 L28.2889969,-3.08910231e-14 L2.24515848,-3.08910231e-14 L-6.30429042e-14,5.75653478 Z" id="Path-25" fill="#51B4DD"></path>
                                </g>
                            </g>
                        </g>
                        <g id="Group-29" transform="translate(739.000000, 84.000000)">
                            <g id="Group-27">
                                <g id="Group-35">
                                    <mask id="mask-15" fill="white">
                                        <use xlink:href="#path-14"></use>
                                    </mask>
                                    <use id="Combined-Shape" fill="#79CBED" xlink:href="#path-14"></use>
                                </g>
                                <g id="Group-25" transform="translate(15.840000, 18.720000)">
                                    <g id="Group-26" transform="translate(2.825280, 1.149120)">
                                        <g id="Group-34"></g>
                                    </g>
                                    <path d="M-6.39488462e-14,5.8392576 C0.242925009,8.3331072 1.45755005,9.580032 3.64387513,9.580032 C5.83020021,9.580032 7.07519088,8.3331072 7.37884715,5.8392576 C8.16835342,8.3331072 9.6562691,9.580032 11.8425942,9.580032 C14.0289193,9.580032 15.2739099,8.3331072 15.5775662,5.8392576 C16.1241475,8.3331072 17.2780413,9.580032 19.0392476,9.580032 C20.8004539,9.580032 22.0454446,8.3331072 22.7742196,5.8392576 C23.5029946,8.3331072 24.8998134,9.580032 26.964676,9.580032 C29.0295386,9.580032 30.2745292,8.3331072 30.699648,5.8392576 L28.6955167,-3.13349346e-14 L2.27742196,-3.13349346e-14 L-6.39488462e-14,5.8392576 Z" id="Path-25" fill="#51B4DD"></path>
                                </g>
                            </g>
                        </g>
                        <g id="Group-29" transform="translate(54.000000, 166.000000)">
                            <g id="Group-27">
                                <g id="Group-35">
                                    <mask id="mask-17" fill="white">
                                        <use xlink:href="#path-16"></use>
                                    </mask>
                                    <use id="Combined-Shape" fill="#79CBED" xlink:href="#path-16"></use>
                                </g>
                                <g id="Group-25" transform="translate(22.000000, 26.000000)">
                                    <g id="Group-26" transform="translate(3.924000, 1.596000)">
                                        <g id="Group-34">
                                            <g id="Group-50" transform="translate(0.076000, 0.404000)"></g>
                                        </g>
                                    </g>
                                    <path d="M-8.8817842e-14,8.11008 C0.337395846,11.57376 2.02437507,13.3056 5.06093769,13.3056 C8.0975003,13.3056 9.82665401,11.57376 10.2483988,8.11008 C11.3449353,11.57376 13.4114849,13.3056 16.4480475,13.3056 C19.4846101,13.3056 21.2137638,11.57376 21.6355086,8.11008 C22.3946493,11.57376 23.9972795,13.3056 26.4433994,13.3056 C28.8895193,13.3056 30.618673,11.57376 31.6308605,8.11008 C32.6430481,11.57376 34.5830742,13.3056 37.4509389,13.3056 C40.3188036,13.3056 42.0479573,11.57376 42.6384,8.11008 L39.8548843,-4.35207426e-14 L3.16308605,-4.35207426e-14 L-8.8817842e-14,8.11008 Z" id="Path-25" fill="#51B4DD"></path>
                                </g>
                            </g>
                        </g>
                    </g>
                </g>
            </g>
        </g>
    </g>
</svg>